<?xml version="1.0" standalone="no"?>
<!DOCTYPE svg PUBLIC "-//W3C//DTD SVG 20010904//EN"
 "http://www.w3.org/TR/2001/REC-SVG-20010904/DTD/svg10.dtd">
<svg version="1.0" xmlns="http://www.w3.org/2000/svg"
 width="320.000000pt" height="320.000000pt" viewBox="0 0 320.000000 320.000000"
 preserveAspectRatio="xMidYMid meet">
<metadata>
Created by potrace 1.14, written by Peter Selinger 2001-2017
</metadata>
<g transform="translate(0.000000,320.000000) scale(0.100000,-0.100000)"
fill="#000000" stroke="none">
<path d="M2410 2260 c0 -13 -7 -20 -20 -20 -13 0 -20 -7 -20 -20 0 -13 -7 -20
-20 -20 -18 0 -20 -7 -20 -60 0 -53 2 -60 20 -60 13 0 20 -7 20 -20 0 -13 7
-20 20 -20 13 0 20 -7 20 -20 0 -13 7 -20 20 -20 13 0 20 -7 20 -20 0 -13 7
-20 20 -20 13 0 20 -7 20 -20 0 -13 7 -20 20 -20 13 0 20 7 20 20 0 13 7 20
20 20 13 0 20 7 20 20 0 13 7 20 20 20 13 0 20 7 20 20 0 13 7 20 20 20 13 0
20 7 20 20 0 13 7 20 20 20 18 0 20 7 20 60 0 53 -2 60 -20 60 -13 0 -20 7
-20 20 0 13 -7 20 -20 20 -13 0 -20 7 -20 20 0 17 -7 20 -40 20 -33 0 -40 -3
-40 -20 0 -13 -7 -20 -20 -20 -13 0 -20 7 -20 20 0 17 -7 20 -40 20 -33 0 -40
-3 -40 -20z"/>
<path d="M410 1630 l0 -150 30 0 30 0 0 60 0 60 60 0 60 0 0 30 c0 27 3 30 30
30 27 0 30 3 30 30 0 27 -3 30 -30 30 -27 0 -30 3 -30 30 l0 30 -90 0 -90 0 0
-150z m180 60 l0 -30 -60 0 -60 0 0 30 0 30 60 0 60 0 0 -30z"/>
<path d="M770 1750 c0 -27 -3 -30 -30 -30 l-30 0 0 -90 0 -90 30 0 c27 0 30
-3 30 -30 l0 -30 60 0 60 0 0 30 c0 27 3 30 30 30 l30 0 0 90 0 90 -30 0 c-27
0 -30 3 -30 30 l0 30 -60 0 -60 0 0 -30z m120 -120 l0 -90 -60 0 -60 0 0 90 0
90 60 0 60 0 0 -90z"/>
<path d="M1010 1630 l0 -150 30 0 30 0 0 60 0 60 30 0 c27 0 30 -3 30 -30 0
-27 3 -30 30 -30 27 0 30 -3 30 -30 0 -27 3 -30 30 -30 27 0 30 3 30 30 0 27
-3 30 -30 30 -27 0 -30 3 -30 30 0 27 -3 30 -30 30 -27 0 -30 3 -30 30 0 27 3
30 30 30 27 0 30 3 30 30 0 27 3 30 30 30 27 0 30 3 30 30 0 27 -3 30 -30 30
-27 0 -30 -3 -30 -30 0 -27 -3 -30 -30 -30 -27 0 -30 -3 -30 -30 0 -27 -3 -30
-30 -30 l-30 0 0 60 0 60 -30 0 -30 0 0 -150z"/>
<path d="M1310 1630 l0 -150 120 0 120 0 0 30 0 30 -90 0 -90 0 0 30 0 30 60
0 60 0 0 30 0 30 -60 0 -60 0 0 30 0 30 90 0 90 0 0 30 0 30 -120 0 -120 0 0
-150z"/>
<path d="M1610 1630 l0 -150 30 0 30 0 0 90 0 90 30 0 c27 0 30 -3 30 -30 0
-27 3 -30 30 -30 27 0 30 3 30 30 0 27 3 30 30 30 l30 0 0 -90 0 -90 30 0 30
0 0 150 0 150 -30 0 c-27 0 -30 -3 -30 -30 0 -27 -3 -30 -30 -30 -27 0 -30 -3
-30 -30 0 -27 -3 -30 -30 -30 -27 0 -30 3 -30 30 0 27 -3 30 -30 30 -27 0 -30
3 -30 30 0 27 -3 30 -30 30 l-30 0 0 -150z"/>
<path d="M1970 1630 l0 -150 90 0 90 0 0 30 c0 27 3 30 30 30 27 0 30 3 30 30
0 27 -3 30 -30 30 -27 0 -30 3 -30 30 0 27 3 30 30 30 27 0 30 3 30 30 0 27
-3 30 -30 30 -27 0 -30 3 -30 30 l0 30 -90 0 -90 0 0 -150z m180 60 l0 -30
-60 0 -60 0 0 30 0 30 60 0 60 0 0 -30z m0 -120 l0 -30 -60 0 -60 0 0 30 0 30
60 0 60 0 0 -30z"/>
<path d="M2330 1750 c0 -27 -3 -30 -30 -30 l-30 0 0 -90 0 -90 30 0 c27 0 30
-3 30 -30 l0 -30 60 0 60 0 0 30 c0 27 3 30 30 30 l30 0 0 90 0 90 -30 0 c-27
0 -30 3 -30 30 l0 30 -60 0 -60 0 0 -30z m120 -120 l0 -90 -60 0 -60 0 0 90 0
90 60 0 60 0 0 -90z"/>
<path d="M2570 1720 l0 -60 30 0 c27 0 30 -3 30 -30 0 -27 3 -30 30 -30 l30 0
0 -60 0 -60 30 0 30 0 0 60 0 60 30 0 c27 0 30 3 30 30 0 27 3 30 30 30 l30 0
0 60 0 60 -30 0 -30 0 0 -60 0 -60 -90 0 -90 0 0 60 0 60 -30 0 -30 0 0 -60z"/>
<path d="M400 1345 l0 -75 45 0 c33 0 45 4 45 15 0 8 7 15 15 15 8 0 15 7 15
15 0 8 -7 15 -15 15 -8 0 -15 7 -15 15 0 8 7 15 15 15 8 0 15 7 15 15 0 8 -7
15 -15 15 -8 0 -15 7 -15 15 0 11 -12 15 -45 15 l-45 0 0 -75z m90 30 c0 -10
-10 -15 -30 -15 -20 0 -30 5 -30 15 0 10 10 15 30 15 20 0 30 -5 30 -15z m0
-60 c0 -10 -10 -15 -30 -15 -20 0 -30 5 -30 15 0 10 10 15 30 15 20 0 30 -5
30 -15z"/>
<path d="M550 1390 c0 -20 5 -30 15 -30 8 0 15 -7 15 -15 0 -8 7 -15 15 -15
10 0 15 -10 15 -30 0 -20 5 -30 15 -30 10 0 15 10 15 30 0 20 5 30 15 30 8 0
15 7 15 15 0 8 7 15 15 15 10 0 15 10 15 30 0 20 -5 30 -15 30 -10 0 -15 -10
-15 -30 0 -29 -2 -30 -45 -30 -43 0 -45 1 -45 30 0 20 -5 30 -15 30 -10 0 -15
-10 -15 -30z"/>
<path d="M790 1345 l0 -75 45 0 c33 0 45 4 45 15 0 8 7 15 15 15 11 0 15 12
15 45 0 33 -4 45 -15 45 -8 0 -15 7 -15 15 0 11 -12 15 -45 15 l-45 0 0 -75z
m90 0 c0 -43 -1 -45 -30 -45 -29 0 -30 2 -30 45 0 43 1 45 30 45 29 0 30 -2
30 -45z"/>
<path d="M970 1405 c0 -8 -7 -15 -15 -15 -12 0 -15 -13 -15 -60 0 -47 3 -60
15 -60 10 0 15 10 15 30 0 27 3 30 30 30 27 0 30 -3 30 -30 0 -20 5 -30 15
-30 12 0 15 13 15 60 0 47 -3 60 -15 60 -8 0 -15 7 -15 15 0 10 -10 15 -30 15
-20 0 -30 -5 -30 -15z m60 -30 c0 -10 -10 -15 -30 -15 -20 0 -30 5 -30 15 0
10 10 15 30 15 20 0 30 -5 30 -15z"/>
<path d="M1090 1345 c0 -60 3 -75 15 -75 10 0 15 10 15 30 0 20 5 30 15 30 8
0 15 -7 15 -15 0 -8 7 -15 15 -15 8 0 15 -7 15 -15 0 -8 7 -15 15 -15 8 0 15
7 15 15 0 8 -7 15 -15 15 -10 0 -15 10 -15 30 0 20 5 30 15 30 8 0 15 7 15 15
0 8 -7 15 -15 15 -8 0 -15 7 -15 15 0 11 -12 15 -45 15 l-45 0 0 -75z m90 30
c0 -10 -10 -15 -30 -15 -20 0 -30 5 -30 15 0 10 10 15 30 15 20 0 30 -5 30
-15z"/>
<path d="M1240 1345 c0 -60 3 -75 15 -75 10 0 15 10 15 30 0 20 5 30 15 30 8
0 15 -7 15 -15 0 -8 7 -15 15 -15 8 0 15 -7 15 -15 0 -8 7 -15 15 -15 8 0 15
7 15 15 0 8 -7 15 -15 15 -10 0 -15 10 -15 30 0 20 5 30 15 30 8 0 15 7 15 15
0 8 -7 15 -15 15 -8 0 -15 7 -15 15 0 11 -12 15 -45 15 l-45 0 0 -75z m90 30
c0 -10 -10 -15 -30 -15 -20 0 -30 5 -30 15 0 10 10 15 30 15 20 0 30 -5 30
-15z"/>
<path d="M1390 1345 l0 -75 60 0 c47 0 60 3 60 15 0 11 -12 15 -45 15 -33 0
-45 4 -45 15 0 10 10 15 30 15 20 0 30 5 30 15 0 10 -10 15 -30 15 -20 0 -30
5 -30 15 0 11 12 15 45 15 33 0 45 4 45 15 0 12 -13 15 -60 15 l-60 0 0 -75z"/>
<path d="M1540 1345 c0 -60 3 -75 15 -75 11 0 15 12 15 45 0 33 4 45 15 45 8
0 15 7 15 15 0 8 -7 15 -15 15 -8 0 -15 7 -15 15 0 8 -7 15 -15 15 -12 0 -15
-15 -15 -75z"/>
<path d="M1630 1390 c0 -20 -5 -30 -15 -30 -8 0 -15 -7 -15 -15 0 -8 7 -15 15
-15 10 0 15 -10 15 -30 0 -20 5 -30 15 -30 12 0 15 15 15 75 0 60 -3 75 -15
75 -10 0 -15 -10 -15 -30z"/>
<path d="M417 1204 c-4 -4 -7 -17 -7 -28 0 -17 2 -18 10 -6 9 13 11 13 20 0 9
-12 10 -10 8 9 -3 25 -19 37 -31 25z"/>
<path d="M481 1188 c-1 -23 3 -28 22 -27 15 1 17 3 5 6 -9 2 -19 14 -21 26 -4
18 -5 17 -6 -5z"/>
<path d="M535 1185 c0 -14 5 -25 10 -25 6 0 10 11 10 25 0 14 -4 25 -10 25 -5
0 -10 -11 -10 -25z"/>
<path d="M576 1202 c7 -4 14 -16 17 -27 4 -19 5 -19 6 2 0 12 7 24 14 26 6 3
-1 6 -18 6 -16 0 -25 -3 -19 -7z"/>
<path d="M630 1185 c0 -20 5 -25 23 -24 19 1 19 2 3 6 -15 4 -16 7 -5 14 12 7
12 9 -1 10 -10 0 -8 3 5 9 19 8 19 9 -2 9 -18 1 -23 -5 -23 -24z"/>
<path d="M700 1185 c0 -24 1 -24 19 -8 21 18 19 33 -5 33 -8 0 -14 -10 -14
-25z"/>
<path d="M753 1194 c-8 -21 13 -42 28 -27 13 13 5 43 -11 43 -6 0 -13 -7 -17
-16z m27 -9 c0 -8 -4 -15 -10 -15 -5 0 -10 7 -10 15 0 8 5 15 10 15 6 0 10 -7
10 -15z"/>
<path d="M802 1185 c0 -16 2 -24 5 -17 4 10 8 10 21 0 14 -10 15 -10 5 2 -10
11 -10 17 0 29 10 14 10 14 -5 3 -13 -10 -17 -10 -21 0 -3 7 -5 0 -5 -17z"/>
<path d="M850 1185 c0 -20 5 -25 23 -24 19 1 19 2 3 6 -15 4 -16 7 -5 14 12 7
12 9 -1 10 -10 0 -8 3 5 9 19 8 19 9 -2 9 -18 1 -23 -5 -23 -24z"/>
<path d="M901 1185 c0 -23 2 -26 8 -12 4 10 11 18 16 18 5 0 12 -8 16 -18 6
-14 8 -12 8 11 1 22 -2 26 -12 17 -10 -8 -17 -7 -25 1 -9 9 -12 5 -11 -17z"/>
<path d="M963 1194 c-8 -21 13 -42 28 -27 13 13 5 43 -11 43 -6 0 -13 -7 -17
-16z m27 -9 c0 -8 -4 -15 -10 -15 -5 0 -10 7 -10 15 0 8 5 15 10 15 6 0 10 -7
10 -15z"/>
<path d="M1010 1186 c0 -31 6 -34 13 -6 3 11 1 23 -4 26 -5 3 -9 -6 -9 -20z"/>
<path d="M1037 1197 c-3 -8 -1 -20 4 -28 6 -10 9 -7 9 14 0 29 -5 35 -13 14z"/>
<path d="M1085 1185 c0 -14 5 -25 10 -25 6 0 10 11 10 25 0 14 -4 25 -10 25
-5 0 -10 -11 -10 -25z"/>
<path d="M1120 1186 c0 -31 6 -34 13 -6 3 11 1 23 -4 26 -5 3 -9 -6 -9 -20z"/>
<path d="M1147 1197 c-3 -8 -1 -20 4 -28 6 -10 9 -7 9 14 0 29 -5 35 -13 14z"/>
<path d="M1175 1200 c-3 -6 2 -13 11 -17 16 -6 16 -7 -2 -14 -16 -6 -16 -8 -2
-8 24 -1 33 18 12 26 -16 6 -16 7 2 14 16 6 16 8 2 8 -9 1 -20 -4 -23 -9z"/>
<path d="M1220 1185 c0 -24 1 -24 19 -8 21 18 19 33 -5 33 -8 0 -14 -10 -14
-25z"/>
<path d="M1275 1185 c0 -14 5 -25 10 -25 6 0 10 11 10 25 0 14 -4 25 -10 25
-5 0 -10 -11 -10 -25z"/>
<path d="M1311 1183 c0 -15 3 -22 6 -15 3 9 9 10 17 3 10 -8 12 -5 11 12 -1
12 -9 23 -18 25 -13 3 -17 -4 -16 -25z"/>
<path d="M1360 1185 c0 -20 5 -25 23 -24 19 1 19 2 3 6 -15 4 -16 7 -5 14 12
7 12 9 -1 10 -10 0 -8 3 5 9 19 8 19 9 -2 9 -18 1 -23 -5 -23 -24z"/>
<path d="M1410 1185 c0 -20 4 -26 18 -23 9 2 17 12 17 23 0 11 -8 21 -17 23
-14 3 -18 -3 -18 -23z m30 0 c0 -8 -4 -15 -10 -15 -5 0 -10 7 -10 15 0 8 5 15
10 15 6 0 10 -7 10 -15z"/>
</g>
</svg>
